<svg aria-hidden="true" style="position:absolute;width:0;height:0;overflow:hidden" xmlns="http://www.w3.org/2000/svg"><defs><symbol id="icon-announcements" viewBox="0 0 32 32"><path fill="#46b843" style="fill:var(--color1, #46b843)" d="M19.851 12.337zm-.001 0-.755.754.754-.754zM25.768 25.6v1.067h1.124l-.059-1.122-1.065.056zm-1.954 0-1.065.061.058 1.006h1.007V25.6zM6.597 8.359H5.53v1.007l1.005.058.062-1.065zm0-1.941.056-1.065-1.122-.059v1.124h1.067zm16.168 19.574-1.066.041v.002l1.066-.043zM6.205 9.408l-.042 1.066h.001l.041-1.066zm20.647 16.584-1.066.033v.001l1.066-.035zm-6.247-14.409-.755.754.001.001.754-.754zm-14.4-6.249L6.17 6.4h.001l.034-1.066zm9.268 11.374-.755.754.754-.754zM6.2 12.592l.05-1.066h-.003l-.046 1.066zm13.389 13.4zm-4.095.003zm-2.905-6.413-.755.753.002.002.753-.755zM6.2 16.672l-.074 1.064h.002l.071-1.064zM18.495 25.6v1.067h1.158l-.095-1.154-1.063.087zm-3.776-8.138zm1.813 8.138-1.062.101.092.965h.97v-1.067zm-3.189-6.773-.755.753.002.002.753-.755zm-6.746-3.192H5.53v.969l.964.093.103-1.062zm0-1.949.087-1.063-1.153-.094v1.157h1.067zm8.121 3.776-.755.754.001.001.754-.754zm5.887-5.879-.001-.001-1.508 1.509 1.508-1.508zm6.228 13.962a21.285 21.285 0 0 0-6.228-13.962l-1.508 1.509a19.155 19.155 0 0 1 5.606 12.564l2.13-.111zm-3.019 1.122h1.954v-2.133h-1.954v2.133zM6.535 9.424c8.709.504 15.713 7.517 16.214 16.237l2.13-.122c-.562-9.8-8.428-17.678-18.22-18.245l-.123 2.13zM5.53 6.418V8.36h2.133V6.418H5.53zm15.075 5.165c-3.618-3.622-8.518-5.946-13.952-6.23l-.112 2.13a19.116 19.116 0 0 1 12.554 5.608l1.509-1.508zm3.226 14.368c-.365-9.54-8.055-17.239-17.584-17.609l-.083 2.132c8.414.326 15.213 7.131 15.535 15.559l2.132-.082zm-.386-.351c.247 0 .38.191.386.35l-2.132.085c.036.895.76 1.699 1.746 1.699v-2.133zm2.752 0h-2.752v2.133h2.752V25.6zm-.412.427a.41.41 0 0 1 .411-.427v2.133c.967 0 1.753-.802 1.721-1.776l-2.132.07zm-5.934-13.69a20.22 20.22 0 0 1 5.935 13.688l2.132-.067a22.349 22.349 0 0 0-6.559-15.13l-1.508 1.509zM6.171 6.4c5.33.168 10.146 2.4 13.679 5.937l1.509-1.508A22.322 22.322 0 0 0 6.238 4.267l-.067 2.132zm.426-.41a.41.41 0 0 1-.427.41l.069-2.132A1.722 1.722 0 0 0 4.463 5.99h2.133zm0 2.738V5.989H4.464v2.739h2.133zm-.35-.386c.161.006.35.14.35.386H4.464c0 .982.8 1.71 1.699 1.746l.085-2.132zm9.981 7.613a15.076 15.076 0 0 0-9.978-4.428l-.1 2.131a12.94 12.94 0 0 1 8.568 3.804l1.51-1.507zm4.426 9.986a15.125 15.125 0 0 0-4.427-9.987l-1.509 1.508a12.994 12.994 0 0 1 3.805 8.581l2.131-.102zm-1.714 1.792c.964 0 1.761-.802 1.715-1.792l-2.131.1a.418.418 0 0 1 .416-.442v2.133zm-2.756 0h2.756V25.6h-2.756v2.133zm-1.754-1.668c.057.869.769 1.669 1.754 1.669v-2.133c.122 0 .219.052.277.11.056.055.092.13.098.214l-2.129.14zm-2.594-5.728a8.879 8.879 0 0 1 2.594 5.729l2.129-.142a11.014 11.014 0 0 0-3.217-7.098l-1.506 1.511zm-5.708-2.6a8.858 8.858 0 0 1 5.705 2.598l1.511-1.506a10.987 10.987 0 0 0-7.073-3.22l-.143 2.129zm-1.664-1.755c0 .979.788 1.694 1.662 1.755l.147-2.128c.141.01.324.13.324.373H4.464zm0-2.738v2.737h2.133v-2.737H4.464zm1.782-1.717a1.714 1.714 0 0 0-1.782 1.718h2.133a.42.42 0 0 1-.444.414l.093-2.131zm13.312 13.986a14.063 14.063 0 0 0-4.085-8.805l-1.509 1.508a11.934 11.934 0 0 1 3.468 7.471l2.126-.174zm-3.026 1.154h1.962v-2.133h-1.962v2.133zm-3.942-7.084a9.938 9.938 0 0 1 2.88 6.119l2.124-.203a12.076 12.076 0 0 0-3.498-7.427l-1.506 1.511zm-6.095-2.887a9.925 9.925 0 0 1 6.093 2.884l1.511-1.506A12.055 12.055 0 0 0 6.7 14.573l-.205 2.123zm-.965-3.01v1.948h2.133v-1.948H5.53zm9.943 3.022a14.017 14.017 0 0 0-8.789-4.085l-.173 2.126a11.885 11.885 0 0 1 7.453 3.466l1.51-1.507zm0 0-1.508 1.509 1.508-1.509z"/><path fill="none" stroke="#46b843" style="stroke:var(--color1, #46b843)" stroke-width="1.067" d="M10.632 23.884a2.783 2.783 0 1 1-5.566 0 2.783 2.783 0 0 1 5.566 0z"/></symbol><symbol id="icon-arrow-down" viewBox="0 0 64 32"><path d="M0 0h64L32 32 0 0z"/></symbol><symbol id="icon-arrow-right" viewBox="0 0 48 32"><path fill="#4cb649" style="fill:var(--color2, #4cb649)" d="M47.472 14.744a1.76 1.76 0 0 1 0 2.514L33.031 31.48c-.704.693-1.848.693-2.552 0s-.704-1.82 0-2.514l11.358-11.189H1.806c-.996 0-1.805-.793-1.805-1.778 0-.981.809-1.778 1.805-1.778h40.031L30.479 3.036a1.76 1.76 0 0 1 0-2.514 1.816 1.816 0 0 1 2.552 0l14.441 14.222z"/></symbol><symbol id="icon-burger" viewBox="0 0 48 32"><path d="M0 2a2 2 0 0 1 2-2h44a2 2 0 1 1 0 4H2a2 2 0 0 1-2-2zm0 28a2 2 0 0 1 2-2h44a2 2 0 1 1 0 4H2a2 2 0 0 1-2-2zm2-16a2 2 0 1 0 0 4h44a2 2 0 1 0 0-4H2z"/></symbol><symbol id="icon-comment" viewBox="0 0 35 32"><path fill="none" stroke="#889099" style="stroke:var(--color3, #889099)" stroke-width="4" d="M8.182 24.889v-2H4.465V3.778h25.737v19.111H17.385l-9.203 4.568v-2.568zm0 4.224c0 .002 0 .002 0 0z"/></symbol><symbol id="icon-facebook" viewBox="0 0 16 32"><path d="M10.38 32V17.404h4.718l.704-5.689h-5.423V8.088c0-1.653.437-2.764 2.718-2.764h2.901V.22c-.507-.073-2.225-.219-4.225-.219-4.183 0-7.042 2.647-7.042 7.517v4.197H-.001v5.689h4.732V32h5.648z"/></symbol><symbol id="icon-google" viewBox="0 0 49 32"><path d="M30.615 13.907c.147.897.294 1.794.294 2.692 0 4.636-1.325 8.374-4.268 11.065C23.845 30.505 20.312 32 15.749 32c-4.416 0-8.095-1.495-11.186-4.636S0 20.485 0 16c0-4.486 1.472-8.224 4.563-11.364S11.334 0 15.749 0c4.121 0 7.654 1.346 10.597 4.187l-4.268 4.187c-1.619-1.645-3.827-2.393-6.329-2.393-2.649 0-5.004 1.047-6.918 2.991-1.913 2.093-2.944 4.486-2.944 7.178 0 2.841 1.03 5.234 2.944 7.178s4.268 2.991 6.918 2.991c2.208 0 4.121-.598 5.887-1.794 1.766-1.346 2.797-2.991 3.091-5.084h-8.978v-5.533h14.866zm18.84 4.635h-4.416v4.636h-4.563v-4.636h-4.563v-4.636h4.563V9.27h4.563v4.636h4.416v4.636z"/></symbol><symbol id="icon-linkedin" viewBox="0 0 32 32"><path fill="#323642" style="fill:var(--color4, #323642)" d="M30.024 0H2.568C1.253 0 0 .893 0 2.168v27.599C0 31.042 1.254 32 2.568 32h27.456C31.339 32 32 31.041 32 29.767V2.168C32 .893 31.339 0 30.024 0z"/><path fill="#fff" style="fill:var(--color5, #fff)" d="M9.454 26.909H5.09V12.363h4.364v14.546zM7.521 10.182h-.033c-1.632 0-2.69-1.06-2.69-2.458 0-1.426 1.089-2.484 2.754-2.484s2.689 1.043 2.721 2.47c0 1.398-1.056 2.472-2.752 2.472zm20.115 16.727h-5.091v-7.864c0-1.956-.661-3.29-2.42-3.29-1.346 0-2.151.9-2.502 1.769-.13.311-.168.745-.168 1.178v8.207h-4.808s.064-13.091 0-14.546h4.808v1.98c.727-.991 1.897-2.404 4.481-2.404 3.203 0 5.701 2.078 5.701 6.547v8.423zM17.48 14.389l.031-.046v.046h-.031z"/></symbol><symbol id="icon-price" viewBox="0 0 15 32"><path d="M9.06.484v4.321H7.397V.484H9.06zM9.011 27.19v4.027H7.348V27.19h1.663zm4.304-5.217c0-.804-.168-1.5-.505-2.087-.326-.598-.88-1.136-1.663-1.614-.772-.489-1.826-.967-3.163-1.435-1.37-.446-2.554-.951-3.554-1.516-.989-.565-1.755-1.272-2.299-2.12-.533-.859-.799-1.935-.799-3.228 0-1.272.277-2.375.832-3.31.565-.935 1.364-1.652 2.397-2.152C5.594 4 6.806 3.745 8.197 3.745c1.076 0 2.038.158 2.886.473a5.492 5.492 0 0 1 2.168 1.418c.598.62 1.054 1.386 1.37 2.299.315.902.473 1.946.473 3.13h-1.94c0-.804-.109-1.543-.326-2.217a4.92 4.92 0 0 0-.946-1.761 4.197 4.197 0 0 0-1.565-1.174c-.609-.283-1.315-.424-2.12-.424-1.12 0-2.043.201-2.772.603s-1.266.94-1.614 1.614a4.76 4.76 0 0 0-.522 2.217c0 .793.147 1.489.44 2.087s.826 1.141 1.598 1.63c.772.478 1.88.962 3.326 1.451 1.37.446 2.543.951 3.522 1.516.989.565 1.75 1.272 2.283 2.119.533.837.799 1.908.799 3.212 0 1.315-.299 2.44-.897 3.375-.598.924-1.435 1.63-2.511 2.12s-2.332.734-3.766.734c-.924 0-1.837-.119-2.739-.359-.902-.25-1.717-.652-2.446-1.207s-1.31-1.288-1.745-2.201c-.435-.924-.652-2.06-.652-3.408h1.94c0 1.054.168 1.929.505 2.625s.777 1.25 1.321 1.663c.554.413 1.163.706 1.826.88s1.326.261 1.989.261c1.109 0 2.049-.196 2.821-.587.783-.402 1.38-.94 1.793-1.614.413-.685.62-1.435.62-2.25z"/></symbol><symbol id="icon-search" viewBox="0 0 32 32"><path stroke-linejoin="round" stroke-linecap="round" stroke-width="3.2" d="M25.6 13.6c0 6.627-5.373 12-12 12s-12-5.373-12-12 5.373-12 12-12 12 5.373 12 12zM30.4 30.4l-8.32-8.32"/></symbol><symbol id="icon-twitter" viewBox="0 0 39 32"><path d="M38.957 3.786a15.818 15.818 0 0 1-4.589 1.273A8.106 8.106 0 0 0 37.881.591a15.982 15.982 0 0 1-5.078 1.962A7.928 7.928 0 0 0 26.97 0c-4.413 0-7.992 3.619-7.992 8.079a8.2 8.2 0 0 0 .207 1.841C12.544 9.583 6.656 6.365 2.714 1.476a8.09 8.09 0 0 0-1.081 4.062 8.1 8.1 0 0 0 3.554 6.725 7.93 7.93 0 0 1-3.62-1.014v.101c0 3.914 2.756 7.181 6.41 7.924a8.013 8.013 0 0 1-2.106.283 7.618 7.618 0 0 1-1.504-.15c1.018 3.213 3.968 5.549 7.464 5.613a15.924 15.924 0 0 1-9.925 3.454c-.645 0-1.28-.04-1.906-.111a22.405 22.405 0 0 0 12.25 3.636c14.701 0 22.737-12.314 22.737-22.992l-.027-1.046a16.054 16.054 0 0 0 3.997-4.175z"/></symbol><symbol id="icon-youtube" viewBox="0 0 46 32"><path fill="#323642" style="fill:var(--color4, #323642)" d="M45.714 6.836A6.833 6.833 0 0 0 38.882 0H6.831A6.834 6.834 0 0 0-.001 6.836v18.328A6.833 6.833 0 0 0 6.831 32h32.051a6.834 6.834 0 0 0 6.832-6.836V6.836z"/><path fill="#fff" style="fill:var(--color5, #fff)" d="M18.286 24.94V7.724l13.055 8.608-13.055 8.608z"/></symbol></defs></svg>