<svg aria-hidden="true" style="position:absolute;width:0;height:0;overflow:hidden" xmlns="http://www.w3.org/2000/svg"><defs><symbol id="icon-arrow-down" viewBox="0 0 64 32"><path d="M0 0h64L32 32 0 0z"/></symbol><symbol id="icon-arrow-right" viewBox="0 0 48 32"><path fill="#4cb649" style="fill:var(--color2, #4cb649)" d="M47.472 14.744a1.76 1.76 0 0 1 0 2.514L33.031 31.48c-.704.693-1.848.693-2.552 0s-.704-1.82 0-2.514l11.358-11.189H1.806c-.996 0-1.805-.793-1.805-1.778 0-.981.809-1.778 1.805-1.778h40.031L30.479 3.036a1.76 1.76 0 0 1 0-2.514 1.816 1.816 0 0 1 2.552 0l14.441 14.222z"/></symbol><symbol id="icon-burger" viewBox="0 0 48 32"><path d="M0 2a2 2 0 0 1 2-2h44a2 2 0 1 1 0 4H2a2 2 0 0 1-2-2zm0 28a2 2 0 0 1 2-2h44a2 2 0 1 1 0 4H2a2 2 0 0 1-2-2zm2-16a2 2 0 1 0 0 4h44a2 2 0 1 0 0-4H2z"/></symbol><symbol id="icon-comment" viewBox="0 0 35 32"><path d="M8.182 24.889v-2H4.465V3.778h25.737v19.111H17.385l-9.203 4.568v-2.568zm0 4.224c0 .002 0 .002 0 0z"/></symbol><symbol id="icon-facebook" viewBox="0 0 16 32"><path d="M10.38 32V17.404h4.718l.704-5.689h-5.423V8.088c0-1.653.437-2.764 2.718-2.764h2.901V.22c-.507-.073-2.225-.219-4.225-.219-4.183 0-7.042 2.647-7.042 7.517v4.197H-.001v5.689h4.732V32h5.648z"/></symbol><symbol id="icon-google" viewBox="0 0 49 32"><path d="M30.615 13.907c.147.897.294 1.794.294 2.692 0 4.636-1.325 8.374-4.268 11.065C23.845 30.505 20.312 32 15.749 32c-4.416 0-8.095-1.495-11.186-4.636S0 20.485 0 16c0-4.486 1.472-8.224 4.563-11.364S11.334 0 15.749 0c4.121 0 7.654 1.346 10.597 4.187l-4.268 4.187c-1.619-1.645-3.827-2.393-6.329-2.393-2.649 0-5.004 1.047-6.918 2.991-1.913 2.093-2.944 4.486-2.944 7.178 0 2.841 1.03 5.234 2.944 7.178s4.268 2.991 6.918 2.991c2.208 0 4.121-.598 5.887-1.794 1.766-1.346 2.797-2.991 3.091-5.084h-8.978v-5.533h14.866zm18.84 4.635h-4.416v4.636h-4.563v-4.636h-4.563v-4.636h4.563V9.27h4.563v4.636h4.416v4.636z"/></symbol><symbol id="icon-linkedin" viewBox="0 0 32 32"><path fill="#323642" style="fill:var(--color4, #323642)" d="M30.024 0H2.568C1.253 0 0 .893 0 2.168v27.599C0 31.042 1.254 32 2.568 32h27.456C31.339 32 32 31.041 32 29.767V2.168C32 .893 31.339 0 30.024 0z"/><path fill="#fff" style="fill:var(--color5, #fff)" d="M9.454 26.909H5.09V12.363h4.364v14.546zM7.521 10.182h-.033c-1.632 0-2.69-1.06-2.69-2.458 0-1.426 1.089-2.484 2.754-2.484s2.689 1.043 2.721 2.47c0 1.398-1.056 2.472-2.752 2.472zm20.115 16.727h-5.091v-7.864c0-1.956-.661-3.29-2.42-3.29-1.346 0-2.151.9-2.502 1.769-.13.311-.168.745-.168 1.178v8.207h-4.808s.064-13.091 0-14.546h4.808v1.98c.727-.991 1.897-2.404 4.481-2.404 3.203 0 5.701 2.078 5.701 6.547v8.423zM17.48 14.389l.031-.046v.046h-.031z"/></symbol><symbol id="icon-price" viewBox="0 0 15 32"><path d="M9.06.484v4.321H7.397V.484H9.06zM9.011 27.19v4.027H7.348V27.19h1.663zm4.304-5.217c0-.804-.168-1.5-.505-2.087-.326-.598-.88-1.136-1.663-1.614-.772-.489-1.826-.967-3.163-1.435-1.37-.446-2.554-.951-3.554-1.516-.989-.565-1.755-1.272-2.299-2.12-.533-.859-.799-1.935-.799-3.228 0-1.272.277-2.375.832-3.31.565-.935 1.364-1.652 2.397-2.152C5.594 4 6.806 3.745 8.197 3.745c1.076 0 2.038.158 2.886.473a5.492 5.492 0 0 1 2.168 1.418c.598.62 1.054 1.386 1.37 2.299.315.902.473 1.946.473 3.13h-1.94c0-.804-.109-1.543-.326-2.217a4.92 4.92 0 0 0-.946-1.761 4.197 4.197 0 0 0-1.565-1.174c-.609-.283-1.315-.424-2.12-.424-1.12 0-2.043.201-2.772.603s-1.266.94-1.614 1.614a4.76 4.76 0 0 0-.522 2.217c0 .793.147 1.489.44 2.087s.826 1.141 1.598 1.63c.772.478 1.88.962 3.326 1.451 1.37.446 2.543.951 3.522 1.516.989.565 1.75 1.272 2.283 2.119.533.837.799 1.908.799 3.212 0 1.315-.299 2.44-.897 3.375-.598.924-1.435 1.63-2.511 2.12s-2.332.734-3.766.734c-.924 0-1.837-.119-2.739-.359-.902-.25-1.717-.652-2.446-1.207s-1.31-1.288-1.745-2.201c-.435-.924-.652-2.06-.652-3.408h1.94c0 1.054.168 1.929.505 2.625s.777 1.25 1.321 1.663c.554.413 1.163.706 1.826.88s1.326.261 1.989.261c1.109 0 2.049-.196 2.821-.587.783-.402 1.38-.94 1.793-1.614.413-.685.62-1.435.62-2.25z"/></symbol><symbol id="icon-search" viewBox="0 0 32 32"><path stroke-linejoin="round" stroke-linecap="round" stroke-width="3.2" d="M25.6 13.6c0 6.627-5.373 12-12 12s-12-5.373-12-12 5.373-12 12-12 12 5.373 12 12zm4.8 16.8-8.32-8.32"/></symbol><symbol id="icon-twitter" viewBox="0 0 39 32"><path d="M38.957 3.786a15.818 15.818 0 0 1-4.589 1.273A8.106 8.106 0 0 0 37.881.591a15.982 15.982 0 0 1-5.078 1.962A7.928 7.928 0 0 0 26.97 0c-4.413 0-7.992 3.619-7.992 8.079a8.2 8.2 0 0 0 .207 1.841C12.544 9.583 6.656 6.365 2.714 1.476a8.09 8.09 0 0 0-1.081 4.062 8.1 8.1 0 0 0 3.554 6.725 7.93 7.93 0 0 1-3.62-1.014v.101c0 3.914 2.756 7.181 6.41 7.924a8.013 8.013 0 0 1-2.106.283 7.618 7.618 0 0 1-1.504-.15c1.018 3.213 3.968 5.549 7.464 5.613a15.924 15.924 0 0 1-9.925 3.454c-.645 0-1.28-.04-1.906-.111a22.405 22.405 0 0 0 12.25 3.636c14.701 0 22.737-12.314 22.737-22.992l-.027-1.046a16.054 16.054 0 0 0 3.997-4.175z"/></symbol><symbol id="icon-youtube" viewBox="0 0 46 32"><path fill="#323642" style="fill:var(--color4, #323642)" d="M45.714 6.836A6.833 6.833 0 0 0 38.882 0H6.831A6.834 6.834 0 0 0-.001 6.836v18.328A6.833 6.833 0 0 0 6.831 32h32.051a6.834 6.834 0 0 0 6.832-6.836V6.836z"/><path fill="#fff" style="fill:var(--color5, #fff)" d="M18.286 24.94V7.724l13.055 8.608-13.055 8.608z"/></symbol><symbol id="icon-face" fill="none" xmlns="http://www.w3.org/2000/svg"><path d="M14.657.01C23.21-.182 30.22 6.803 29.993 15.434c-.206 7.867-6.662 14.65-15.172 14.565-8.108-.082-14.777-6.652-14.818-15C.053 6.663 6.683.191 14.657.01Z" fill="#323642"/><path fill-rule="evenodd" clip-rule="evenodd" d="M25.57 16.834c.795-.589 1.277-1.353 1.181-2.382-.095-1.01-.605-1.76-1.529-2.17-1-.441-1.957-.317-2.815.384-.098.08-.158.083-.258.018-1.591-1.05-3.345-1.637-5.235-1.829l-.364-.038-.303-.031.746-2.32.47-1.464.093.014c.057.008.108.016.159.027l.811.175c.694.151 1.389.302 2.085.444.199.04.298.11.354.32a2.016 2.016 0 0 0 2.252 1.465c1.371-.222 2.116-1.7 1.451-2.883-.532-.946-2.184-1.512-3.248-.274-.104.122-.193.15-.348.117-.913-.2-1.828-.395-2.742-.59L17.308 5.6c-.522-.112-.765.03-.926.541-.15.479-.302.957-.453 1.436-.302.958-.605 1.917-.906 2.876-.039.124-.072.215-.239.214-.847-.006-1.681.114-2.509.289-1.484.314-2.865.875-4.12 1.731-.115.078-.185.047-.29-.002a13.823 13.823 0 0 1-.348-.169c-.311-.154-.623-.31-.953-.396-1.565-.415-3.423.857-3.103 2.947.125.822.614 1.417 1.287 1.868.111.074.135.14.115.262a5.74 5.74 0 0 0 .386 3.283c.649 1.5 1.765 2.585 3.121 3.44 1.548.978 3.265 1.473 5.065 1.7 1.574.196 3.14.121 4.687-.227 2.226-.503 4.209-1.458 5.735-3.209 1.21-1.388 1.746-3.002 1.497-4.844-.034-.245.025-.364.216-.506Zm-5.294.077c.003.831-.743 1.575-1.582 1.576-.873 0-1.587-.734-1.588-1.634 0-.824.735-1.546 1.58-1.549.869-.002 1.586.722 1.59 1.607Zm-1.207 4.59c.182-.21.135-.461-.032-.627-.233-.23-.533-.295-.766-.162-.053.03-.102.065-.152.099-.04.027-.08.054-.12.079-1.607.977-3.287 1.129-5.027.405a5.897 5.897 0 0 1-.769-.414c-.084-.05-.167-.101-.252-.15-.25-.146-.564-.095-.803.147-.158.16-.178.432-.02.656.09.126.21.24.337.328 1.088.764 2.31 1.083 3.726 1.099l.155-.01c.144-.01.323-.022.502-.039.88-.08 1.718-.312 2.477-.768.277-.169.53-.398.744-.643Zm-5.977-4.594c.004.804-.752 1.578-1.54 1.58-.895.001-1.638-.718-1.641-1.588-.002-.86.726-1.594 1.58-1.594.866 0 1.598.73 1.601 1.602Z" fill="#fff"/></symbol><symbol id="icon-bell" fill="none" xmlns="http://www.w3.org/2000/svg">&gt;<path d="M34.063 23.119v.23l.102.209 3.928 8.042v.001a.864.864 0 0 1-.775 1.244H24.809v1.182a4.973 4.973 0 0 1-9.947 0v-1.182H2.364a.864.864 0 0 1-.775-1.244V31.6l3.929-8.042.101-.208v-7.916a13.91 13.91 0 0 1 8.894-13.128l.008-.003.007-.003.004-.002.018-.007.084-.032a18.327 18.327 0 0 1 1.533-.493c1.004-.274 2.298-.536 3.543-.536 1.25 0 2.612.263 3.69.54a22.373 22.373 0 0 1 1.756.53l.017.007a14.143 14.143 0 0 1 8.891 13.128v7.684Z" stroke="#46B843" stroke-width="2"/></symbol><symbol id="icon-wifi" fill="none" xmlns="http://www.w3.org/2000/svg">&gt;<mask id="a" fill="#fff"><path fill-rule="evenodd" clip-rule="evenodd" d="M29.22 13.132C35.666 19.576 39.81 28.32 40.314 38h-3.663C35.655 20.637 21.714 6.678 4.37 5.674v-3.64c9.675.507 18.401 4.643 24.85 11.098ZM3.634 7.64c16.822.652 30.404 14.25 31.05 31.094.027.69.582 1.265 1.274 1.265h5.16c.69 0 1.25-.575 1.228-1.265-.33-10.527-4.745-20.052-11.713-27.017C23.664 4.741 14.157.333 3.634.001A1.23 1.23 0 0 0 2.37 1.23v5.135c0 .69.572 1.247 1.265 1.275Zm-.01 5.97c6.777.317 12.89 3.212 17.387 7.717 4.51 4.512 7.392 10.63 7.717 17.407A1.216 1.216 0 0 1 27.512 40h-5.168c-.69 0-1.247-.575-1.292-1.26-.303-4.547-2.21-8.797-5.448-12.025a18.611 18.611 0 0 0-11.98-5.455c-.687-.047-1.254-.605-1.254-1.295v-5.132c0-.693.567-1.252 1.255-1.223Zm15.972 9.13c3.987 3.99 6.595 9.33 7.08 15.26h-3.679a20.64 20.64 0 0 0-5.98-12.7A20.608 20.608 0 0 0 4.37 19.315v-3.653c5.922.482 11.252 3.098 15.226 7.079h.001Z"/></mask><path d="m29.22 13.133-1.414 1.414 1.414-1.415Zm0-.001-1.416 1.413h.001l1.414-1.413ZM40.313 38v2h2.107l-.11-2.104-1.997.104Zm-3.663 0-1.996.115.108 1.885h1.888v-2ZM4.37 5.674h-2V7.56l1.884.11.116-1.997Zm0-3.64L4.474.035 2.37-.074v2.107h2Zm30.314 36.701-1.998.077v.003l1.998-.08ZM3.634 7.641l-.079 1.998h.002l.078-1.998Zm38.713 31.094-2 .063v.002l2-.065ZM30.634 11.718l-1.415 1.414h.001l1.414-1.414ZM3.634.001 3.57 2h.001l.064-2Zm17.378 21.327-1.416 1.413h.001l1.415-1.413ZM3.625 13.61l.093-1.998h-.006l-.087 1.998Zm25.104 25.124 1.998-.094v-.002l-1.998.096Zm-7.677.005 1.996-.13v-.002l-1.996.132Zm-5.448-12.025-1.416 1.412.004.005 1.412-1.417ZM3.624 21.26l-.137 1.996h.004l.134-1.996ZM26.679 38v2h2.17l-.177-2.163-1.993.163Zm-7.08-15.258 1.414-1.414-1.415 1.414ZM22.997 38l-1.99.19.172 1.81h1.818v-2Zm-5.98-12.699-1.416 1.412.004.004 1.413-1.416ZM4.37 19.315h-2v1.816l1.807.175.193-1.991Zm0-3.653.162-1.993-2.162-.176v2.17h2Zm15.226 7.079-1.415 1.413.001.001 1.415-1.414Zm11.038-11.023-2.829 2.828h.001l2.828-2.828Zm11.678 26.178c-.532-10.194-4.896-19.399-11.678-26.178l-2.828 2.829c6.11 6.107 10.033 14.389 10.511 23.558l3.995-.209ZM36.652 40h3.662v-4h-3.663v4ZM4.253 7.67c16.329.946 29.463 14.094 30.4 30.445l3.994-.23C37.594 19.51 22.845 4.74 4.485 3.678l-.231 3.994ZM2.37 2.034v3.64h4v-3.64h-4Zm28.264 9.685C23.85 4.927 14.663.57 4.474.036l-.21 3.994c9.163.48 17.428 4.396 23.54 10.515l2.83-2.827Zm6.049 26.94C35.998 20.772 21.58 6.336 3.713 5.643L3.556 9.64c15.777.612 28.524 13.37 29.129 29.173l3.997-.153ZM35.959 38a.7.7 0 0 1 .724.656l-3.997.159C32.753 40.493 34.11 42 35.959 42v-4Zm5.16 0h-5.16v4h5.16v-4Zm-.771.8a.77.77 0 0 1 .771-.8v4a3.23 3.23 0 0 0 3.227-3.33l-3.998.13ZM29.22 13.133c6.623 6.62 10.814 15.666 11.128 25.665l3.998-.125c-.347-11.057-4.985-21.06-12.298-28.37l-2.828 2.83ZM3.571 2c9.994.315 19.023 4.5 25.648 11.132l2.83-2.827C24.734 2.982 14.75-1.65 3.698-1.998L3.57 2Zm.799-.77a.77.77 0 0 1-.8.77l.13-3.998A3.23 3.23 0 0 0 .37 1.23h4Zm0 5.136V1.23h-4v5.135h4Zm-.656-.724a.7.7 0 0 1 .656.724h-4c0 1.84 1.5 3.206 3.185 3.273l.159-3.997Zm18.713 14.273c-4.834-4.842-11.412-7.96-18.709-8.302l-.187 3.995c6.258.293 11.905 2.965 16.066 7.133l2.83-2.826Zm8.3 18.724c-.35-7.293-3.453-13.875-8.3-18.725l-2.83 2.828c4.173 4.174 6.834 9.827 7.135 16.089l3.995-.192ZM27.512 42c1.807 0 3.302-1.505 3.215-3.359l-3.995.188a.784.784 0 0 1 .78-.829v4Zm-5.168 0h5.168v-4h-5.168v4Zm-3.288-3.129c.107 1.63 1.441 3.13 3.288 3.13v-4c.228 0 .41.097.52.206a.62.62 0 0 1 .184.402l-3.992.262Zm-4.864-10.74c2.89 2.88 4.594 6.673 4.864 10.742l3.991-.265c-.334-5.026-2.445-9.734-6.03-13.309l-2.825 2.833ZM3.491 23.257c4.034.27 7.81 1.976 10.697 4.871l2.833-2.824a20.611 20.611 0 0 0-13.263-6.038l-.267 3.991ZM.37 19.966c0 1.835 1.478 3.176 3.117 3.29l.275-3.99a.673.673 0 0 1 .608.7h-4Zm0-5.133v5.132h4v-5.132h-4Zm3.342-3.22C1.845 11.53.37 13.042.37 14.832h4a.787.787 0 0 1-.833.776l.175-3.997ZM28.67 37.836c-.526-6.42-3.35-12.197-7.66-16.51l-2.828 2.829c3.664 3.666 6.056 8.567 6.501 14.008l3.987-.327ZM22.998 40h3.68v-4h-3.68v4Zm-7.392-13.283a18.64 18.64 0 0 1 5.401 11.473l3.982-.38a22.64 22.64 0 0 0-6.558-13.925l-2.825 2.832ZM4.177 21.306a18.608 18.608 0 0 1 11.425 5.407l2.833-2.824a22.608 22.608 0 0 0-13.873-6.565l-.385 3.982ZM2.37 15.662v3.653h4v-3.653h-4Zm18.642 5.666c-4.296-4.303-10.064-7.137-16.48-7.66l-.325 3.988c5.43.442 10.322 2.84 13.974 6.498l2.83-2.826Zm0 0-.001-.001-2.829 2.828.001.001 2.829-2.828Z" fill="#46B843" mask="url(#a)"/><circle cx="6.717" cy="34.783" stroke="#46B843" stroke-width="2" r="5.217"/></symbol></defs></svg>