<svg viewBox="0 0 7630 7630" xml:space="preserve" xmlns="http://www.w3.org/2000/svg"><g id="Layer_x0020_1"><path style="fill:none" d="M0 0h40v40H0z"/><g id="_1053190048"><path class="fil1" d="M2241 2014v539c572 2 1109 226 1513 631 405 405 629 943 631 1516h538c-3-1481-1202-2680-2682-2686zM2605 3973c-201 0-364 163-364 364 0 200 163 363 364 363 200 0 363-163 363-363 0-201-163-364-363-364z"/><path class="fil1" d="M2241 2930v538c676 7 1225 556 1232 1232h538c-7-975-795-1763-1770-1770z"/></g></g></svg>